<?xml version="1.0" standalone="no"?>
<!DOCTYPE svg PUBLIC "-//W3C//DTD SVG 1.1//EN" "http://www.w3.org/Graphics/SVG/1.1/DTD/svg11.dtd" >
<svg xmlns="http://www.w3.org/2000/svg">
<metadata>Generated by IcoMoon</metadata>
<defs>
<font id="icomoon" horiz-adv-x="1024">
<font-face units-per-em="1024" ascent="960" descent="-64" />
<missing-glyph horiz-adv-x="1024" />
<glyph unicode="&#x20;" horiz-adv-x="512" d="" />
<glyph unicode="&#xe900;" glyph-name="icons_to_font_02_curves-01" d="M332.8 627.2h128v-128h-128v128zM537.6 627.2h128v-128h-128v128zM332.8 422.4h128v-128h-128v128zM537.6 422.4h128v-128h-128v128z" />
<glyph unicode="&#xe901;" glyph-name="icons_to_font_02_curves-02" d="M332.8 601.6h332.8v-102.4h-332.8v102.4zM332.8 422.4h332.8v-102.4h-332.8v102.4z" />
<glyph unicode="&#xe902;" glyph-name="icons_to_font_02_curves-03" d="M896 524.8c15.36 0 25.6-10.24 25.6-25.6v-179.2c0-56.32-46.080-102.4-102.4-102.4h-614.4c-56.32 0-102.4 46.080-102.4 102.4v179.2c0 15.36 10.24 25.6 25.6 25.6h76.8v-51.2c0-56.32 46.080-102.4 102.4-102.4h409.6c56.32 0 102.4 46.080 102.4 102.4v51.2h76.8zM896 576h-128v-102.4c0-28.16-23.040-51.2-51.2-51.2h-409.6c-28.16 0-51.2 23.040-51.2 51.2v102.4h-128c-43.52 0-76.8-33.28-76.8-76.8v-179.2c0-84.48 69.12-153.6 153.6-153.6h614.4c84.48 0 153.6 69.12 153.6 153.6v179.2c0 43.52-33.28 76.8-76.8 76.8v0zM870.4 563.2h-51.2v140.8c0 28.16-23.040 51.2-51.2 51.2h-512c-28.16 0-51.2-23.040-51.2-51.2v-140.8h-51.2v140.8c0 56.32 46.080 102.4 102.4 102.4h512c56.32 0 102.4-46.080 102.4-102.4v-140.8zM153.763 69.912l25.812 127.988 50.191-10.122-25.812-127.988-50.191 10.122zM794.182 185.642l50.191 10.122 25.812-127.988-50.191-10.122-25.812 127.988z" />
<glyph unicode="&#xe903;" glyph-name="icons_to_font_02_curves-04" d="M486.4 243.2h-179.2c-128 0-230.4 102.4-230.4 230.4v358.4h640v-358.4c0-128-102.4-230.4-230.4-230.4zM128 780.8v-307.2c0-99.84 79.36-179.2 179.2-179.2h179.2c99.84 0 179.2 79.36 179.2 179.2v307.2h-537.6zM819.2 473.6h-153.6v307.2h153.6c84.48 0 153.6-69.12 153.6-153.6s-69.12-153.6-153.6-153.6zM716.8 524.8h102.4c56.32 0 102.4 46.080 102.4 102.4s-46.080 102.4-102.4 102.4h-102.4v-204.8zM0 89.6h793.6v-51.2h-793.6v51.2z" />
<glyph unicode="&#xe904;" glyph-name="icons_to_font_02_curves-05" d="M409.6 832c56.32 0 102.4-46.080 102.4-102.4s-46.080-102.4-102.4-102.4-102.4 46.080-102.4 102.4 46.080 102.4 102.4 102.4zM409.6 883.2c-84.48 0-153.6-69.12-153.6-153.6s69.12-153.6 153.6-153.6 153.6 69.12 153.6 153.6-69.12 153.6-153.6 153.6v0zM281.6 678.4c-64 0-122.88 33.28-151.040 89.6l-17.92 38.4h168.96v-51.2h-74.24c20.48-17.92 46.080-25.6 74.24-25.6v-51.2zM409.6 755.2c0-14.138-11.462-25.6-25.6-25.6s-25.6 11.462-25.6 25.6c0 14.138 11.462 25.6 25.6 25.6s25.6-11.462 25.6-25.6zM716.8 64h-281.6c-128 0-230.4 102.4-230.4 230.4s102.4 230.4 230.4 230.4h153.6v-25.6c0-20.48 5.12-128 102.4-128 53.76 0 76.8 28.16 104.96 87.040l15.36 30.72 25.6-23.040c53.76-48.64 84.48-110.080 84.48-171.52 0-135.68-84.48-230.4-204.8-230.4zM435.2 473.6c-99.84 0-179.2-79.36-179.2-179.2s79.36-179.2 179.2-179.2h281.6c104.96 0 153.6 89.6 153.6 179.2 0 38.4-15.36 76.8-43.52 110.080-28.16-46.080-64-84.48-135.68-84.48-94.72 0-143.36 74.24-151.040 153.6h-104.96z" />
<glyph unicode="&#xe905;" glyph-name="icons_to_font_02_curves-06" d="M947.2 64h-51.2v640h-768v-640h-51.2v691.2h870.4zM819.2 64h-51.2v512h-512v-512h-51.2v563.2h614.4zM230.4 473.6h563.2v-51.2h-563.2v51.2zM230.4 320h563.2v-51.2h-563.2v51.2zM230.4 166.4h563.2v-51.2h-563.2v51.2zM460.8 396.8h102.4v-51.2h-102.4v51.2z" />
<glyph unicode="&#xe906;" glyph-name="icons_to_font_02_curves-07" d="M332.8-23.040l-291.84 291.84 650.24 650.24 291.84-291.84-650.24-650.24zM112.64 268.8l220.16-220.16 578.56 578.56-220.16 220.16-578.56-578.56zM366.408 557.383l36.204 36.204 103.18-103.18-36.204-36.204-103.18 103.18zM519.751 711.238l36.204 36.204 50.685-50.685-36.204-36.204-50.685 50.685zM212.551 404.043l36.204 36.204 50.685-50.685-36.204-36.204-50.685 50.685zM896 64h-343.040l343.040 343.040v-343.040zM675.84 115.2h168.96v168.96l-168.96-168.96z" />
<glyph unicode="&#xe907;" glyph-name="icons_to_font_02_curves-08" d="M691.2-23.040l-650.24 650.24 291.84 291.84 650.24-650.24-291.84-291.84zM112.64 627.2l578.56-578.56 220.16 220.16-578.56 578.56-220.16-220.16zM520.006 492.217l103.18 103.18 36.204-36.204-103.18-103.18-36.204 36.204zM724.546 389.557l50.685 50.685 36.204-36.204-50.685-50.685-36.204 36.204zM417.351 696.757l50.685 50.685 36.204-36.204-50.685-50.685-36.204 36.204zM947.2 540.16l-343.040 343.040h343.040v-343.040zM727.040 832l168.96-168.96v168.96h-168.96z" />
<glyph unicode="&#xe908;" glyph-name="icons_to_font_02_curves-09" d="M491.52-20.48c-117.76 0-215.040 97.28-215.040 215.040v161.28h-46.080c-69.12 0-107.52 69.12-117.76 115.2-2.56 23.040-35.84 222.72-40.96 294.4-2.56 30.72 7.68 58.88 28.16 81.92 23.040 25.6 56.32 38.4 89.6 38.4h15.36c2.56 7.68 12.8 15.36 23.040 15.36h28.16c12.8 0 23.040-10.24 23.040-23.040v-25.6c0-12.8-10.24-23.040-23.040-23.040h-30.72c-10.24 0-17.92 5.12-23.040 15.36h-12.8c-20.48 0-43.52-10.24-56.32-25.6s-20.48-33.28-17.92-51.2c5.12-66.56 35.84-253.44 40.96-289.28 7.68-33.28 35.84-79.36 74.24-79.36h130.56c40.96 0 69.12 48.64 74.24 79.36 0 2.56 35.84 217.6 40.96 289.28 0 17.92-5.12 35.84-17.92 48.64-15.36 15.36-35.84 25.6-56.32 25.6h-15.36c-2.56-7.68-12.8-15.36-23.040-15.36h-28.16c-12.8 0-23.040 10.24-23.040 23.040v25.6c0 12.8 10.24 23.040 23.040 23.040h28.16c10.24 0 17.92-5.12 23.040-15.36h15.36c33.28 0 66.56-15.36 89.6-38.4 20.48-23.040 30.72-51.2 30.72-81.92-5.12-76.8-40.96-291.84-43.52-294.4-10.24-46.080-51.2-115.2-117.76-115.2h-43.52v-161.28c0-94.72 76.8-171.52 171.52-171.52h120.32c94.72 0 171.52 76.8 171.52 171.52v291.84c-56.32 10.24-99.84 61.44-99.84 120.32 0 66.56 53.76 122.88 122.88 122.88 66.56 0 122.88-53.76 122.88-122.88 0-58.88-43.52-110.080-99.84-120.32v-291.84c0-117.76-97.28-215.040-215.040-215.040h-120.32zM803.84 683.52c-43.52 0-79.36-35.84-79.36-79.36s35.84-79.36 79.36-79.36 79.36 35.84 79.36 79.36c0 43.52-35.84 79.36-79.36 79.36zM803.84 547.84c-30.72 0-56.32 25.6-56.32 56.32s25.6 56.32 56.32 56.32c30.72 0 56.32-25.6 56.32-56.32s-23.040-56.32-56.32-56.32zM803.84 616.96c-7.68 0-12.8-5.12-12.8-12.8s5.12-12.8 12.8-12.8c7.68 0 12.8 5.12 12.8 12.8s-5.12 12.8-12.8 12.8z" />
<glyph unicode="&#xe909;" glyph-name="icons_to_font_02_curves-10" d="M317.44 686.080c-7.68 0-15.36 2.56-20.48 7.68-15.36 10.24-20.48 33.28-7.68 48.64 7.68 10.24 17.92 15.36 28.16 15.36 7.68 0 15.36-2.56 20.48-7.68 15.36-12.8 20.48-33.28 7.68-48.64-7.68-10.24-17.92-15.36-28.16-15.36zM192 309.76c-10.24 0-23.040 5.12-28.16 15.36-5.12 7.68-7.68 17.92-5.12 25.6 2.56 10.24 7.68 17.92 15.36 23.040 5.12 5.12 12.8 7.68 20.48 7.68 12.8 0 23.040-5.12 28.16-15.36 10.24-15.36 7.68-38.4-7.68-48.64-10.24-5.12-15.36-7.68-23.040-7.68zM512-12.8c-253.44 0-460.8 207.36-460.8 460.8s207.36 460.8 460.8 460.8 460.8-207.36 460.8-460.8c0-163.84-84.48-309.76-222.72-394.24-2.56-2.56-7.68-2.56-10.24-2.56-7.68 0-12.8 2.56-17.92 10.24-2.56 5.12-2.56 10.24-2.56 15.36s5.12 10.24 10.24 12.8c128 76.8 202.24 212.48 202.24 360.96 0 232.96-189.44 419.84-419.84 419.84-232.96-2.56-419.84-189.44-419.84-422.4s189.44-419.84 419.84-419.84h440.32c10.24 0 20.48-10.24 20.48-20.48s-7.68-20.48-20.48-20.48h-440.32zM281.6 396.8c-12.8 0-25.6 2.56-38.4 5.12-33.28 10.24-58.88 33.28-74.24 64s-17.92 64-7.68 97.28c17.92 51.2 66.56 87.040 120.32 87.040 12.8 0 25.6-2.56 38.4-5.12 66.56-20.48 102.4-92.16 81.92-158.72-17.92-53.76-66.56-89.6-120.32-89.6zM281.6 609.28c-38.4 0-69.12-23.040-81.92-58.88-7.68-23.040-5.12-46.080 5.12-66.56s28.16-35.84 51.2-43.52c7.68-2.56 17.92-5.12 25.6-5.12 38.4 0 69.12 23.040 81.92 58.88 15.36 46.080-10.24 94.72-56.32 107.52-7.68 5.12-17.92 7.68-25.6 7.68zM509.44 76.8c-15.36 0-28.16 10.24-33.28 25.6-2.56 10.24-2.56 17.92 2.56 28.16 5.12 7.68 12.8 15.36 20.48 17.92 2.56 0 7.68 2.56 10.24 2.56 15.36 0 30.72-10.24 33.28-25.6 5.12-17.92-5.12-38.4-23.040-43.52-2.56-5.12-7.68-5.12-10.24-5.12zM368.64 125.44c-28.16 0-53.76 7.68-74.24 23.040-28.16 20.48-46.080 48.64-51.2 81.92s2.56 66.56 23.040 94.72c23.040 33.28 61.44 51.2 102.4 51.2 25.6 0 53.76-7.68 74.24-23.040 56.32-40.96 69.12-120.32 28.16-176.64-23.040-33.28-61.44-51.2-102.4-51.2zM368.64 337.92c-28.16 0-53.76-12.8-69.12-35.84-12.8-17.92-17.92-40.96-15.36-64s15.36-43.52 33.28-56.32c15.36-10.24 33.28-15.36 51.2-15.36 28.16 0 53.76 12.8 69.12 35.84 28.16 38.4 20.48 92.16-17.92 120.32-15.36 10.24-33.28 15.36-51.2 15.36zM655.36 125.44c-40.96 0-79.36 20.48-102.4 51.2-20.48 28.16-28.16 61.44-23.040 94.72s23.040 64 51.2 81.92c23.040 15.36 48.64 23.040 74.24 23.040 40.96 0 79.36-20.48 102.4-51.2 40.96-56.32 28.16-135.68-28.16-176.64-23.040-15.36-48.64-23.040-74.24-23.040v0zM655.36 337.92c-17.92 0-35.84-5.12-51.2-15.36-38.4-28.16-46.080-81.92-17.92-120.32 15.36-23.040 43.52-35.84 69.12-35.84 17.92 0 35.84 5.12 51.2 15.36 17.92 12.8 30.72 33.28 33.28 56.32s-2.56 46.080-15.36 64c-15.36 23.040-40.96 35.84-69.12 35.84zM512 381.44c-35.84 0-66.56 30.72-66.56 66.56s30.72 66.56 66.56 66.56 66.56-30.72 66.56-66.56-30.72-66.56-66.56-66.56zM512 473.6c-12.8 0-25.6-10.24-25.6-25.6s10.24-25.6 25.6-25.6 25.6 10.24 25.6 25.6-12.8 25.6-25.6 25.6zM711.68 683.52c-2.56 0-7.68 0-10.24 2.56-17.92 5.12-28.16 25.6-23.040 43.52 5.12 15.36 17.92 25.6 33.28 25.6 2.56 0 7.68 0 10.24-2.56 17.92-5.12 28.16-25.6 23.040-43.52-5.12-15.36-17.92-25.6-33.28-25.6zM742.4 396.8c-56.32 0-102.4 35.84-120.32 87.040-20.48 66.56 15.36 138.24 81.92 158.72 12.8 5.12 25.6 5.12 38.4 5.12 56.32 0 102.4-35.84 120.32-87.040 10.24-33.28 7.68-66.56-7.68-97.28s-40.96-53.76-74.24-64c-10.24 0-23.040-2.56-38.4-2.56zM742.4 609.28c-10.24 0-17.92-2.56-25.6-5.12-46.080-15.36-69.12-64-56.32-107.52 12.8-35.84 43.52-58.88 81.92-58.88 7.68 0 17.92 2.56 25.6 5.12 23.040 7.68 38.4 23.040 51.2 43.52 10.24 20.48 12.8 43.52 5.12 66.56-10.24 33.28-43.52 56.32-81.92 56.32zM512 563.2c-69.12 0-128 56.32-128 125.44s56.32 128 128 128 128-56.32 128-128c0-66.56-58.88-125.44-128-125.44zM512 778.24c-48.64 0-87.040-38.4-87.040-87.040s38.4-87.040 87.040-87.040 87.040 38.4 87.040 87.040-38.4 87.040-87.040 87.040zM867.84 340.48c0-19.794-16.046-35.84-35.84-35.84s-35.84 16.046-35.84 35.84c0 19.794 16.046 35.84 35.84 35.84s35.84-16.046 35.84-35.84z" />
<glyph unicode="&#xe90a;" glyph-name="icons_to_font_02_curves-11" d="M796.16-2.56c-17.92 0-33.28 7.68-46.080 20.48s-17.92 30.72-17.92 46.080l12.8 253.44-23.040 5.12c-25.6 5.12-40.96 30.72-35.84 53.76l71.68 496.64c2.56 25.6 25.6 43.52 51.2 43.52 28.16 0 51.2-23.040 51.2-51.2v-806.4c0-33.28-30.72-61.44-64-61.44zM808.96 883.2c-7.68 0-15.36-5.12-15.36-15.36l-74.24-496.64c0-7.68 2.56-12.8 10.24-15.36l35.84-7.68c7.68-2.56 12.8-10.24 12.8-17.92l-12.8-268.8c0-7.68 2.56-15.36 7.68-20.48s12.8-10.24 20.48-10.24c15.36 0 28.16 12.8 28.16 28.16v808.96c2.56 7.68-5.12 15.36-12.8 15.36v0zM540.16-2.56c-17.92 0-33.28 7.68-46.080 20.48s-17.92 28.16-17.92 46.080l12.8 473.6c0 5.12-2.56 10.24-5.12 12.8l-17.92 12.8c-15.36 10.24-23.040 25.6-23.040 43.52l17.92 294.4c0 10.24 7.68 15.36 17.92 15.36s17.92-7.68 17.92-17.92l-12.8-250.88h40.96v253.44c0 10.24 7.68 17.92 17.92 17.92s17.92-7.68 17.92-17.92v-250.88h40.96l-12.8 250.88c0 10.24 7.68 17.92 15.36 17.92 0 0 0 0 0 0 10.24 0 17.92-7.68 17.92-15.36l15.36-299.52c0-17.92-7.68-33.28-23.040-43.52l-17.92-12.8c-5.12-2.56-7.68-7.68-5.12-12.8l12.8-473.6c0-17.92-5.12-33.28-17.92-46.080s-28.16-17.92-46.080-17.92zM478.72 601.6c0-5.12 2.56-10.24 5.12-12.8l17.92-12.8c15.36-10.24 23.040-25.6 23.040-43.52l-12.8-471.040c0-7.68 2.56-15.36 7.68-20.48s12.8-7.68 20.48-7.68c7.68 0 15.36 2.56 20.48 7.68s7.68 12.8 7.68 20.48l-12.8 473.6c0 17.92 7.68 33.28 23.040 43.52l17.92 12.8c5.12 2.56 7.68 7.68 5.12 12.8v12.8h-120.32l-2.56-15.36zM286.72-2.56c-17.92 0-33.28 7.68-46.080 20.48s-17.92 28.16-17.92 46.080l12.8 496.64c0 10.24-5.12 20.48-15.36 25.6-38.4 23.040-61.44 64-61.44 110.080 0 33.28 5.12 87.040 23.040 133.12 28.16 74.24 71.68 92.16 104.96 92.16 30.72 0 76.8-15.36 104.96-92.16 17.92-46.080 23.040-99.84 23.040-133.12 0-46.080-23.040-87.040-61.44-110.080-10.24-5.12-15.36-15.36-15.36-25.6l12.8-496.64c0-17.92-5.12-33.28-17.92-46.080-12.8-15.36-28.16-20.48-46.080-20.48zM286.72 883.2c-71.68 0-94.72-128-94.72-189.44 0-33.28 17.92-61.44 46.080-79.36 20.48-12.8 33.28-33.28 30.72-56.32l-12.8-496.64c0-7.68 2.56-15.36 7.68-20.48s12.8-7.68 20.48-7.68c7.68 0 15.36 2.56 20.48 7.68s7.68 12.8 7.68 20.48l-12.8 496.64c0 23.040 12.8 46.080 30.72 56.32 28.16 17.92 46.080 46.080 46.080 79.36 5.12 64-17.92 189.44-89.6 189.44z" />
<glyph unicode="&#xe90b;" glyph-name="icons_to_font_02_curves-12" d="M609.28 819.2h-345.6c-10.24 0-20.48-7.68-20.48-20.48v-248.32c0-10.24 7.68-20.48 20.48-20.48h345.6c10.24 0 20.48 7.68 20.48 20.48v250.88c-2.56 10.24-10.24 17.92-20.48 17.92zM588.8 570.88h-307.2v209.92h307.2v-209.92zM762.88 33.28h-652.8c-10.24 0-20.48-7.68-20.48-20.48 0-10.24 7.68-20.48 20.48-20.48h652.8c10.24 0 20.48 7.68 20.48 20.48-2.56 10.24-10.24 20.48-20.48 20.48zM903.68 691.2l-58.88 66.56c-2.56 2.56-5.12 5.12-10.24 5.12-20.48 0-28.16-20.48-17.92-33.28l56.32-64c12.8-15.36 20.48-23.040 20.48-38.4h-53.76c-12.8 0-23.040-10.24-23.040-23.040v-92.16c0-20.48 17.92-38.4 38.4-38.4h40.96v-286.72c0-10.24-7.68-20.48-20.48-20.48h-43.52c-10.24 0-15.36 10.24-15.36 20.48v250.88c0 33.28-30.72 56.32-61.44 56.32h-33.28v325.12c0 53.76-43.52 97.28-97.28 97.28h-384c-53.76 0-97.28-43.52-97.28-97.28v-747.52c0-20.48 15.36-20.48 40.96-20.48 12.8 0 33.28 0 53.76 0h384c20.48 0 40.96 0 53.76 0 25.6 0 40.96 0 40.96 20.48v384h33.28c12.8 0 23.040-10.24 23.040-17.92v-250.88c0-33.28 23.040-58.88 53.76-58.88h43.52c30.72 0 58.88 25.6 58.88 58.88v0 440.32c5.12 28.16-10.24 48.64-25.6 64zM686.080 89.6c-12.8 0-33.28 0-58.88 0h-384c-25.6 0-46.080 0-58.88 0v729.6c0 30.72 25.6 58.88 58.88 58.88h384c30.72 0 58.88-25.6 58.88-58.88v-729.6zM857.6 512v76.8h38.4v-76.8h-38.4z" />
<glyph unicode="&#xe90c;" glyph-name="icons_to_font_02_curves-13" d="M373.76 89.6c-2.56 0-5.12 0-7.68 2.56-130.56 66.56-212.48 199.68-212.48 348.16v40.96c0 33.28 25.6 58.88 58.88 58.88h583.68c33.28 0 58.88-25.6 58.88-58.88v-40.96c0-148.48-81.92-281.6-212.48-348.16-2.56-2.56-5.12-2.56-7.68-2.56-7.68 0-12.8 2.56-15.36 10.24-5.12 7.68 0 20.48 7.68 25.6 117.76 61.44 192 181.76 192 317.44v40.96c0 12.8-10.24 23.040-23.040 23.040h-583.68c-12.8 0-23.040-10.24-23.040-23.040v-40.96c0-133.12 74.24-256 192-317.44 7.68-5.12 12.8-15.36 7.68-25.6-2.56-7.68-7.68-10.24-15.36-10.24zM181.76 5.12c-38.4 0-74.24 15.36-102.4 40.96l-46.080 46.080c-5.12 5.12-7.68 12.8-5.12 20.48s10.24 10.24 17.92 10.24h916.48c7.68 0 12.8-5.12 17.92-10.24 2.56-7.68 2.56-15.36-5.12-20.48l-46.080-46.080c-28.16-28.16-64-40.96-102.4-40.96h-645.12zM107.52 74.24c20.48-20.48 46.080-30.72 74.24-30.72h645.12c28.16 0 56.32 10.24 74.24 30.72l15.36 15.36h-826.88l17.92-15.36zM739.84 168.96c-7.68 0-15.36 5.12-17.92 15.36 0 5.12 0 10.24 2.56 12.8 2.56 5.12 7.68 7.68 12.8 7.68l15.36 2.56c66.56 12.8 235.52 64 235.52 148.48 0 28.16-7.68 46.080-23.040 56.32-10.24 5.12-20.48 7.68-35.84 7.68-30.72 0-66.56-12.8-81.92-17.92-2.56 0-5.12-2.56-7.68-2.56-7.68 0-12.8 5.12-15.36 10.24s-2.56 10.24 0 12.8c2.56 5.12 5.12 7.68 10.24 10.24 7.68 2.56 51.2 23.040 97.28 23.040 23.040 0 40.96-5.12 56.32-15.36 25.6-17.92 38.4-46.080 38.4-87.040 0-133.12-253.44-181.76-263.68-184.32h-20.48c0 0-2.56 0-2.56 0zM650.24 588.8c-5.12 0-10.24 2.56-15.36 7.68-33.28 40.96-33.28 104.96 0 148.48 23.040 28.16 23.040 74.24 0 102.4-2.56 2.56-5.12 7.68-5.12 12.8s2.56 10.24 7.68 12.8c2.56 2.56 7.68 5.12 10.24 5.12 5.12 0 10.24-2.56 15.36-7.68 33.28-40.96 33.28-104.96 0-148.48-23.040-28.16-23.040-74.24 0-102.4 2.56-2.56 5.12-7.68 5.12-12.8s-2.56-10.24-7.68-12.8c-2.56-5.12-5.12-5.12-10.24-5.12zM524.8 588.8c-5.12 0-10.24 2.56-15.36 7.68-33.28 40.96-33.28 104.96 0 148.48 23.040 28.16 23.040 74.24 0 102.4-2.56 2.56-5.12 7.68-5.12 12.8s2.56 10.24 7.68 12.8c2.56 2.56 7.68 5.12 10.24 5.12 5.12 0 10.24-2.56 15.36-7.68 33.28-40.96 33.28-104.96 0-148.48-23.040-28.16-23.040-74.24 0-102.4 5.12-7.68 5.12-20.48-2.56-25.6-2.56-5.12-5.12-5.12-10.24-5.12zM399.36 588.8c-5.12 0-10.24 2.56-15.36 7.68-33.28 40.96-33.28 104.96 0 148.48 23.040 28.16 23.040 74.24 0 102.4-5.12 7.68-5.12 20.48 2.56 25.6 2.56 2.56 7.68 5.12 10.24 5.12 5.12 0 10.24-2.56 15.36-7.68 33.28-40.96 33.28-104.96 0-148.48-23.040-28.16-23.040-74.24 0-102.4 2.56-2.56 5.12-7.68 5.12-12.8s-2.56-10.24-7.68-12.8c0-5.12-5.12-5.12-10.24-5.12z" />
<glyph unicode="&#xe90d;" glyph-name="icons_to_font_02_curves-14" d="M957.44 747.52c-5.12 2.56-7.68 7.68-15.36 7.68h-729.6l-20.48 99.84c0 7.68-12.8 15.36-20.48 15.36h-112.64c-12.8 0-20.48-7.68-20.48-20.48s7.68-17.92 20.48-17.92h99.84l92.16-468.48c12.8-61.44 69.12-107.52 130.56-107.52h442.88c12.8 0 20.48 7.68 20.48 20.48s-10.24 17.92-23.040 17.92h-437.76c-30.72 0-61.44 15.36-76.8 43.52l560.64 76.8c7.68 0 15.36 7.68 15.36 15.36l76.8 307.2c0-2.56 0 5.12-2.56 10.24zM849.92 448l-560.64-71.68-69.12 343.040h696.32l-66.56-271.36zM366.080 217.6c-53.76 0-97.28-43.52-97.28-94.72s43.52-97.28 97.28-97.28 97.28 43.52 97.28 97.28-43.52 94.72-97.28 94.72zM366.080 64c-30.72 0-58.88 25.6-58.88 56.32s25.6 56.32 58.88 56.32 58.88-28.16 58.88-56.32c-2.56-30.72-28.16-56.32-58.88-56.32zM750.080 217.6c-53.76 0-97.28-43.52-97.28-94.72s43.52-97.28 97.28-97.28 97.28 43.52 97.28 97.28-43.52 94.72-97.28 94.72zM750.080 64c-30.72 0-58.88 25.6-58.88 56.32s25.6 56.32 58.88 56.32 58.88-28.16 58.88-56.32c-2.56-30.72-28.16-56.32-58.88-56.32z" />
<glyph unicode="&#xe90e;" glyph-name="icons_to_font_02_curves-15" d="M486.4 691.2h25.6v-486.4h-25.6v486.4zM499.2 186.88l-189.44 186.88 20.48 20.48 168.96-171.52 168.96 171.52 20.48-20.48z" />
<glyph unicode="&#xe90f;" glyph-name="icons_to_font_02_curves-16" d="M499.2-38.4c-276.48 0-499.2 222.72-499.2 499.2s222.72 499.2 499.2 499.2 499.2-222.72 499.2-499.2-222.72-499.2-499.2-499.2zM499.2 934.4c-261.12 0-473.6-212.48-473.6-473.6s212.48-473.6 473.6-473.6 473.6 212.48 473.6 473.6-212.48 473.6-473.6 473.6zM460.8 576v-256l179.2 128z" />
<glyph unicode="&#xe910;" glyph-name="icons_to_font_02_curves-17" d="M640 217.6c-197.12 0-358.4 161.28-358.4 358.4s161.28 358.4 358.4 358.4 358.4-161.28 358.4-358.4-161.28-358.4-358.4-358.4zM640 883.2c-168.96 0-307.2-138.24-307.2-307.2s138.24-307.2 307.2-307.2 307.2 138.24 307.2 307.2-138.24 307.2-307.2 307.2zM83.511 55.727l204.55 204.55 36.204-36.204-204.55-204.55-36.204 36.204zM614.4 729.6h51.2v-307.2h-51.2v307.2zM486.4 601.6h307.2v-51.2h-307.2v51.2z" />
<glyph unicode="&#xe911;" glyph-name="icons_to_font_02_curves-18" d="M294.4 448h486.4v-25.6h-486.4v25.6zM611.84 245.76l-20.48 20.48 171.52 168.96-171.52 168.96 20.48 20.48 186.88-189.44z" />
<glyph unicode="&#xe912;" glyph-name="icons_to_font_02_curves-19" d="M294.4 448h486.4v-25.6h-486.4v25.6zM463.36 245.76l-186.88 189.44 186.88 189.44 20.48-20.48-171.52-168.96 171.52-168.96z" />
<glyph unicode="&#xe913;" glyph-name="icons_to_font_02_curves-20" d="M512 960c-225.28 0-409.6-184.32-409.6-409.6 0-99.84 35.84-192 94.72-263.68 76.8-89.6 314.88-350.72 314.88-350.72s240.64 263.68 314.88 353.28c58.88 71.68 94.72 161.28 94.72 261.12 0 225.28-184.32 409.6-409.6 409.6zM512 448c-56.32 0-102.4 46.080-102.4 102.4s46.080 102.4 102.4 102.4c56.32 0 102.4-46.080 102.4-102.4s-46.080-102.4-102.4-102.4z" />
<glyph unicode="&#xe914;" glyph-name="icons_to_font_02_curves-21" d="M458.24 296.96l-20.48 20.48 120.32 117.76-120.32 117.76 20.48 20.48 135.68-138.24z" />
<glyph unicode="&#xe915;" glyph-name="icons_to_font_02_curves-22" d="M514.56 296.96l-135.68 138.24 135.68 138.24 20.48-20.48-120.32-117.76 120.32-117.76z" />
<glyph unicode="&#xe916;" glyph-name="icons_to_font_02_curves-23" d="M435.2 294.4c-128 0-230.4 102.4-230.4 230.4s102.4 230.4 230.4 230.4 230.4-102.4 230.4-230.4-102.4-230.4-230.4-230.4zM435.2 704c-99.84 0-179.2-79.36-179.2-179.2s79.36-179.2 179.2-179.2 179.2 79.36 179.2 179.2-79.36 179.2-179.2 179.2zM648.132 275.654l36.204 36.204 128.522-128.522-36.204-36.204-128.522 128.522z" />
</font>
</defs>
</svg>
